<?xml version="1.0" encoding="UTF-8"?>
<svg width="256" height="256" viewBox="0 0 256 256" xmlns="http://www.w3.org/2000/svg">
  <defs>
    <linearGradient id="bgGradient" x1="0%" y1="0%" x2="100%" y2="100%">
      <stop offset="0%" style="stop-color:#3498db;stop-opacity:1" />
      <stop offset="100%" style="stop-color:#2980b9;stop-opacity:1" />
    </linearGradient>
  </defs>

  <!-- Background -->
  <rect x="20" y="20" width="216" height="216" rx="20" ry="20" fill="url(#bgGradient)"/>

  <!-- Document/Paper -->
  <rect x="50" y="45" width="156" height="185" rx="5" ry="5" fill="#ffffff"/>

  <!-- Folded corner -->
  <polygon points="176,45 206,75 176,75" fill="#ecf0f1"/>
  <polygon points="176,45 206,75 206,45" fill="#bdc3c7"/>

  <!-- Text lines -->
  <rect x="65" y="90" width="100" height="8" rx="2" fill="#3498db"/>
  <rect x="65" y="110" width="120" height="8" rx="2" fill="#95a5a6"/>
  <rect x="65" y="130" width="80" height="8" rx="2" fill="#95a5a6"/>
  <rect x="65" y="150" width="110" height="8" rx="2" fill="#95a5a6"/>
  <rect x="65" y="170" width="90" height="8" rx="2" fill="#95a5a6"/>
  <rect x="65" y="190" width="100" height="8" rx="2" fill="#95a5a6"/>

  <!-- Code brackets -->
  <text x="65" y="80" font-family="monospace" font-size="24" font-weight="bold" fill="#e74c3c">&lt;/&gt;</text>
</svg>
